# This file uses centimeters as units for non-parametric coordinates.

mtllib DEU_603_KARLSRUHE_PYRAMID_L.MTL
g default
v -1.52833701649496 7.69266787433704 0.180695
v -4.21132290146584 7.89102121322257 0.182896
v -4.4052662405161 5.20803412288128 5.563673
v 0.632666391830952 9.55610728417568 0.178924
v -4.06255288910208 9.90329062558297 0.182774
v -1.7266903553805 5.00968198936616 0.180857
v 0.285550059714258 4.8609219849285 0.179207
v -1.92504369426603 2.32669610439528 0.181018
v -0.0615672833354626 0.165696685956134 0.179489
v -4.60802957923691 2.52504944328082 0.183218
v -4.75678958340124 0.512810028186025 0.18334
v -7.29101546420778 2.72340278216635 0.185419
v -9.45201488073364 0.859933371235522 0.18719
v -7.09266212532225 5.40638866713723 0.185257
v -9.10490153768377 5.55515867130119 0.186907
v -6.89430878643672 8.0893745521081 0.185096
v -8.75777819736754 10.250373968634 0.186625
v -8.92342568513341 10.44251925168 0.18676
v -4.04933401879351 10.0820870191925 0.182764
v -9.28376793129066 5.56837756074262 0.187054
v -9.64410016378196 0.694285867070058 0.187347
v -4.7700184728423 0.3339436373124 0.18335
v 0.104075218096921 -0.0263985957251778 0.179353
v 0.464415450587921 4.84769309576077 0.17906
v 0.824757674879047 9.72175478670118 0.178767
v 0.824607674884649 9.72175482770018 0
v -4.04948401878791 10.0820870601915 0
v -8.92356568512818 10.4425192899458 0
v -9.28390793128543 5.56837759900835 0
v -9.64425016377636 0.694285908069052 0
v -4.77015847283707 0.333943675578128 0
v 0.103928218102412 -0.0263985555461639 0
v 0.464268450593412 4.84769313593978 0
v 0.633553391797819 9.55610704173496 1.259613
v -4.06167288913495 9.90329038505554 1.263463
v 0.286436059681163 4.86092174276111 1.259893
v -0.0606802833685954 0.165696443515418 1.260173
v -4.75590958343411 0.512809787658595 1.264023
v -9.45112488076689 0.859933127974826 1.267873
v -9.10401153771702 5.55515842804049 1.267593
v -8.75689819740041 10.2503737281065 1.267313
vt 0.018500 0.000701
vt 0.333512 0.000701
vt 0.333512 0.529711
vt 0.598624 0.552444
vt 0.328019 0.552444
vt 0.482650 0.740065
vt 0.328019 0.740065
vt 0.328019 0.740066
vt 0.328019 0.552445
vt 0.482650 0.740066
vt 0.598624 0.552445
vt 0.057414 0.552445
vt 0.173387 0.740066
vt 0.328019 0.740065
vt 0.328019 0.552444
vt 0.173387 0.740065
vt 0.057414 0.552444
vt 0.598624 0.552444
vt 0.482650 0.740065
vt 0.328019 0.740065
vt 0.328019 0.552444
vt 0.482650 0.740065
vt 0.598624 0.552444
vt 0.057413 0.552444
vt 0.328019 0.552444
vt 0.173387 0.740065
vt 0.328019 0.740065
vt 0.328019 0.740065
vt 0.328019 0.552444
vt 0.173387 0.740065
vt 0.057414 0.552444
vt 0.047105 0.535767
vt 0.057414 0.552444
vt 0.328019 0.535767
vt 0.328019 0.552444
vt 0.328019 0.552444
vt 0.057413 0.552444
vt 0.328019 0.535767
vt 0.047105 0.535767
vt 0.608933 0.535767
vt 0.598624 0.552444
vt 0.328019 0.535767
vt 0.328019 0.552444
vt 0.328019 0.535767
vt 0.608933 0.535767
vt 0.047105 0.535767
vt 0.328019 0.535767
vt 0.328019 0.535767
vt 0.047105 0.535767
vt 0.608933 0.535767
vt 0.328019 0.552444
vt 0.598624 0.552444
vt 0.328019 0.535767
vt 0.608933 0.535767
vt 0.592184 0.000701
vt 0.123643 0.000701
vt 0.592184 0.037939
vt 0.123643 0.037939
vt 0.592185 0.037939
vt 0.592185 0.000701
vt 0.592184 0.000701
vt 0.123642 0.000701
vt 0.592184 0.037939
vt 0.123642 0.037939
vt 0.592184 0.037939
vt 0.592184 0.000701
vt 0.592184 0.000701
vt 0.123642 0.000701
vt 0.592184 0.037939
vt 0.123642 0.037939
vt 0.592184 0.037939
vt 0.592184 0.000701
vt 0.123642 0.000701
vt 0.592184 0.000701
vt 0.123643 0.000701
vt 0.123643 0.037939
vt 0.592185 0.037939
vt 0.592185 0.000701
vt 0.123643 0.000701
vt 0.642739 0.000701
vt 0.354572 0.517870
vt 0.663626 0.517870
vt 0.663626 0.019340
vt 0.354572 0.517870
vt 0.006633 0.535767
vt 0.328285 0.535767
vt 0.328285 0.999368
vt 0.642826 0.535767
vt 0.328285 0.999368
vt 0.328285 0.535767
vt 0.354572 0.517870
vt 0.663626 0.517870
vt 0.354572 0.517870
vt 0.994435 0.966598
vt 0.994435 0.034588
vt 0.751977 0.966599
vt 0.751976 0.034588
vt 0.994435 0.034588
vt 0.994435 0.966598
vt 0.751976 0.034588
vt 0.751976 0.966599
vt 0.994435 0.966598
vt 0.751977 0.966599
vt 0.994435 0.034588
vt 0.994435 0.966598
vt 0.751976 0.034588
vt 0.751977 0.966599
vt 0.994435 0.966598
vt 0.751976 0.966599
vt 0.994435 0.034588
vt 0.994435 0.966598
vt 0.751976 0.034588
vt 0.751977 0.966599
vt 0.994435 0.966598
vt 0.751976 0.966599
vt 0.994435 0.966598
vt 0.751976 0.966599
vn 0.0663118078880197 0.891992908536622 0.44716
vn 0.0663118078880197 0.891992908536622 0.44716
vn 0.0663118078880197 0.891992908536622 0.44716
vn 0.000819999696043323 -1.22412779497397E-06 1
vn 0.000819999696043323 -1.22412779497397E-06 1
vn 0.000819999969369947 -2.24127832327695E-07 1
vn 0.000819999969369947 -2.24127832327695E-07 1
vn 0.000819999696043323 -1.22412779497397E-06 1
vn 0.000819999969369947 -2.24127832327695E-07 1
vn 0.000819999969369947 -2.24127832327695E-07 1
vn 0.000820999969332594 -2.24401158952485E-07 1
vn 0.000819999969369947 -2.24127832327695E-07 1
vn 0.000819999969369947 -2.24127832327695E-07 1
vn 0.000820999969332594 -2.24401158952485E-07 1
vn 0.000819999696043323 -1.22412779497397E-06 1
vn 0.000819999696043323 -1.22412779497397E-06 1
vn 0.000820999969332594 -2.24401158952485E-07 1
vn 0.000819999969369947 -2.24127832327695E-07 1
vn 0.000819999969369947 -2.24127832327695E-07 1
vn 0.000820999969332594 -2.24401158952485E-07 1
vn 0.000819999969369947 -2.24127832327695E-07 1
vn 0.000819999969369947 -2.24127832327695E-07 1
vn 0.000819999696043323 -1.22412779497397E-06 1
vn 0.000819999969369947 -2.24127832327695E-07 1
vn 0.000819999969369947 -2.24127832327695E-07 1
vn 0.000819999696043323 -1.22412779497397E-06 1
vn 0.000819999696043323 -1.22412779497397E-06 1
vn 0.000819999696043323 -1.22412779497397E-06 1
vn 0.000819999696043323 -1.22412779497397E-06 1
vn 0.000819999969369947 -2.24127832327695E-07 1
vn 0.000819999969369947 -2.24127832327695E-07 1
vn 0.000819999696043323 -1.22412779497397E-06 1
vn 0.000819999969369947 -2.24127832327695E-07 1
vn 0.000819999969369947 -2.24127832327695E-07 1
vn 0.000820999969332594 -2.24401158952485E-07 1
vn 0.000819999969369947 -2.24127832327695E-07 1
vn 0.000819999969369947 -2.24127832327695E-07 1
vn 0.000820999969332594 -2.24401158952485E-07 1
vn 0.000819999696043323 -1.22412779497397E-06 1
vn 0.000818999969407301 -2.23854505702905E-07 1
vn 0.000820999969332594 -2.24401158952485E-07 1
vn 0.000819999969369947 -2.24127832327695E-07 1
vn 0.000819999969369947 -2.24127832327695E-07 1
vn 0.000820999969332594 -2.24401158952485E-07 1
vn 0.000819999969369947 -2.24127832327695E-07 1
vn 0.000819999969369947 -2.24127832327695E-07 1
vn 0.000819999696043323 -1.22412779497397E-06 1
vn 0.000819999969369947 -2.24127832327695E-07 1
vn 0.000819999969369947 -2.24127832327695E-07 1
vn 0.000819999696043323 -1.22412779497397E-06 1
vn 0.000818999969407301 -2.23854505702905E-07 1
vn 0.000818000516097905 1.77641874621444E-06 1
vn 0.000818999969407301 -2.23854505702905E-07 1
vn 0.000819999422716698 -2.22412775762025E-06 1
vn 0.000819999422716698 -2.22412775762025E-06 1
vn 0.000818999969407301 -2.23854505702905E-07 1
vn 0.000819999696043323 -1.22412779497397E-06 1
vn 0.000820999969332594 -2.24401158952485E-07 1
vn 0.000818999969407301 -2.23854505702905E-07 1
vn 0.000818999969407301 -2.23854505702905E-07 1
vn 0.000818999969407301 -2.23854505702905E-07 1
vn 0.000818999969407301 -2.23854505702905E-07 1
vn 0.000818000516097905 1.77641874621444E-06 1
vn 0.000818999696080676 -1.22385446834918E-06 1
vn 0.000819999696043323 -1.22412779497397E-06 1
vn 0.000818999969407301 -2.23854505702905E-07 1
vn 0.000818999969407301 -2.23854505702905E-07 1
vn 0.000819999696043323 -1.22412779497397E-06 1
vn 0.000820999969332594 -2.24401158952485E-07 1
vn 0.000819999696043323 -1.22412779497397E-06 1
vn 0.000819999696043323 -1.22412779497397E-06 1
vn 0.000819999149390073 -3.22412772026653E-06 1
vn 0.000819999149390073 -3.22412772026653E-06 1
vn 0.000819999696043323 -1.22412779497397E-06 1
vn 0.000818999696080676 -1.22385446834918E-06 1
vn 0.000819999696043323 -1.22412779497397E-06 1
vn 0.000819999696043323 -1.22412779497397E-06 1
vn 0.000819999149390073 -3.22412772026653E-06 1
vn 0.000819999149390073 -3.22412772026653E-06 1
vn 0.000819999696043323 -1.22412779497397E-06 1
vn 0.000819999696043323 -1.22412779497397E-06 1
vn 0.000820999969332594 -2.24401158952485E-07 1
vn 0.000819999696043323 -1.22412779497397E-06 1
vn 0.000819999969369947 -2.24127832327695E-07 1
vn 0.000819999969369947 -2.24127832327695E-07 1
vn 0.000819999696043323 -1.22412779497397E-06 1
vn 0.000819999696043323 -1.22412779497397E-06 1
vn 0.000818999696080676 -1.22385446834918E-06 1
vn 0.000819999696043323 -1.22412779497397E-06 1
vn 0.000819999969369947 -2.24127832327695E-07 1
vn 0.000819999969369947 -2.24127832327695E-07 1
vn 0.000819999696043323 -1.22412779497397E-06 1
vn 0.000820999969332594 -2.24401158952485E-07 1
vn 0.000819999696043323 -1.22412779497397E-06 1
vn 0.000819999696043323 -1.22412779497397E-06 1
vn 0.000819999422716698 -2.22412775762025E-06 1
vn 0.000819999422716698 -2.22412775762025E-06 1
vn 0.000819999696043323 -1.22412779497397E-06 1
vn 0.000818999696080676 -1.22385446834918E-06 1
vn 0.073726585625796 0.997278885813273 -6.2E-05
vn 0.0737335853522079 0.997277883900024 -6.1E-05
vn 0.073726585625796 0.997278885813273 -6.1E-05
vn 0.073726585625796 0.997278885813273 -6.1E-05
vn 0.0737335853522079 0.997277883900024 -6.1E-05
vn 0.0737405853519464 0.997277881986737 -5.9E-05
vn 0.0737475850783583 0.997276880073488 -5.5E-05
vn 0.0737405853519464 0.997277881986737 -5.9E-05
vn 0.0737475850783583 0.997276880073488 -5.8E-05
vn 0.0737475850783583 0.997276880073488 -5.8E-05
vn 0.0737405853519464 0.997277881986737 -5.9E-05
vn 0.0737335853522079 0.997277883900024 -6.1E-05
vn -0.997277885266657 0.0737285853523946 0.000748
vn -0.997277885266657 0.0737285853523946 0.000747
vn -0.997277885266657 0.0737285853523946 0.000747
vn -0.997277885266657 0.0737285853523946 0.000747
vn -0.997277885266657 0.0737285853523946 0.000747
vn -0.997277885539983 0.073727585352432 0.000764
vn -0.99727788581331 0.0737265853524694 0.000798
vn -0.997277885539983 0.073727585352432 0.000764
vn -0.997277885539983 0.073727585352432 0.000772
vn -0.997277885539983 0.073727585352432 0.000772
vn -0.997277885539983 0.073727585352432 0.000764
vn -0.997277885266657 0.0737285853523946 0.000747
vn -0.0737285853523946 -0.997277885266657 5.9E-05
vn -0.0737285853523946 -0.997277885266657 5.7E-05
vn -0.0737285853523946 -0.997277885266657 5.7E-05
vn -0.0737285853523946 -0.997277885266657 5.7E-05
vn -0.0737285853523946 -0.997277885266657 5.7E-05
vn -0.0737285853523946 -0.997277885266657 5.7E-05
vn -0.0737285853523946 -0.997277885266657 6E-05
vn -0.0737285853523946 -0.997277885266657 5.7E-05
vn -0.0737285853523946 -0.997277885266657 5.8E-05
vn -0.0737285853523946 -0.997277885266657 5.8E-05
vn -0.0737285853523946 -0.997277885266657 5.7E-05
vn -0.0737285853523946 -0.997277885266657 5.7E-05
vn 0.997277885266657 -0.0737285853523946 -0.000817
vn 0.997277885266657 -0.0737285853523946 -0.000818
vn 0.997277885266657 -0.0737285853523946 -0.000818
vn 0.997277885266657 -0.0737285853523946 -0.000818
vn 0.997277885266657 -0.0737285853523946 -0.000818
vn 0.997277885266657 -0.0737285853523946 -0.000825
vn 0.99727788499333 -0.0737295853523573 -0.000837
vn 0.997277885266657 -0.0737285853523946 -0.000825
vn 0.997277885266657 -0.0737285853523946 -0.000828
vn 0.997277885266657 -0.0737285853523946 -0.000828
vn 0.997277885266657 -0.0737285853523946 -0.000825
vn 0.997277885266657 -0.0737285853523946 -0.000818
vn 0.0663118078880197 0.891992908536622 0.44716
vn 0.0663118078880197 0.891992908536622 0.44716
vn 0.0663118078880197 0.891992908536622 0.44716
vn -0.891626008861202 0.0659447075908572 0.447945
vn -0.891626008861202 0.0659447075908572 0.447945
vn -0.891626008861202 0.0659447075908572 0.447945
vn -0.891626008861202 0.0659447075908572 0.447945
vn -0.891626008861202 0.0659447075908572 0.447945
vn -0.891626008861202 0.0659447075908572 0.447945
vn -0.0655778079154373 -0.891993109158364 0.447267
vn -0.0655778079154373 -0.891993109158364 0.447267
vn -0.0655778079154373 -0.891993109158364 0.447267
vn -0.0655788079154 -0.891993108885038 0.447267
vn -0.0655778079154373 -0.891993109158364 0.447267
vn -0.0655778079154373 -0.891993109158364 0.447267
vn 0.892359008833822 -0.0659449079392732 0.446482
vn 0.892359008833822 -0.0659449079392732 0.446482
vn 0.892359008833822 -0.0659449079392732 0.446482
vn 0.892359008833822 -0.0659449079392732 0.446482
vn 0.892359008833822 -0.0659449079392732 0.446482
vn 0.892359008833822 -0.0659449079392732 0.446482
vn 0.073742585078545 0.997276881440121 -6E-05
vn 0.0737355853521332 0.99727788335337 -6E-05
vn 0.073742585078545 0.997276881440121 -6E-05
vn 0.073742585078545 0.997276881440121 -6E-05
vn 0.0737355853521332 0.99727788335337 -6E-05
vn 0.0737285853523946 0.997277885266657 -6E-05
vn 0.997277885266657 -0.0737285853523946 -0.000818
vn 0.99727788499333 -0.0737295853523573 -0.000818
vn 0.997277885266657 -0.0737285853523946 -0.000818
vn 0.997277885266657 -0.0737285853523946 -0.000818
vn 0.99727788499333 -0.0737295853523573 -0.000818
vn 0.99727788499333 -0.0737295853523573 -0.000819
vn 0.997277885266657 -0.0737285853523946 -0.000819
vn 0.997277885266657 -0.0737285853523946 -0.000818
vn 0.997277885266657 -0.0737285853523946 -0.000818
vn 0.997277885266657 -0.0737285853523946 -0.000818
vn 0.997277885266657 -0.0737285853523946 -0.000818
vn 0.997277885266657 -0.0737285853523946 -0.000818
vn -0.0737295853523573 -0.99727788499333 6E-05
vn -0.0737275856257586 -0.997278885539946 6E-05
vn -0.0737285853523946 -0.997277885266657 6E-05
vn -0.0737285853523946 -0.997277885266657 6E-05
vn -0.0737275856257586 -0.997278885539946 6E-05
vn -0.0737275856257586 -0.997278885539946 6E-05
vn -0.0737295853523573 -0.99727788499333 6E-05
vn -0.0737295853523573 -0.99727788499333 6E-05
vn -0.0737295853523573 -0.99727788499333 6E-05
vn -0.0737295853523573 -0.99727788499333 6E-05
vn -0.0737295853523573 -0.99727788499333 6E-05
vn -0.0737285853523946 -0.997277885266657 6E-05
vn -0.997277885266657 0.0737285853523946 0.000818
vn -0.997277885539983 0.073727585352432 0.000821
vn -0.997277885539983 0.073727585352432 0.000821
vn -0.997277885539983 0.073727585352432 0.000821
vn -0.997277885539983 0.073727585352432 0.000821
vn -0.997277885539983 0.073727585352432 0.000821
vn -0.997277884720003 0.0737305853523199 0.000812
vn -0.997277885266657 0.0737285853523946 0.000818
vn -0.997277885266657 0.0737285853523946 0.000817
vn -0.997277885266657 0.0737285853523946 0.000817
vn -0.997277885266657 0.0737285853523946 0.000818
vn -0.997277885539983 0.073727585352432 0.000821
vn 0.0737355853521332 0.99727788335337 -6E-05
vn 0.0737215856259827 0.997278887179906 -6E-05
vn 0.0737285853523946 0.997277885266657 -6E-05
vn 0.0737285853523946 0.997277885266657 -6E-05
vn 0.0737215856259827 0.997278887179906 -6E-05
vn 0.0737215856259827 0.997278887179906 -6E-05
vn -0.073742585078545 -0.997276881440121 6E-05
vn -0.073742585078545 -0.997276881440121 6E-05
vn -0.0737355853521332 -0.99727788335337 6E-05
vn -0.0737355853521332 -0.99727788335337 6E-05
vn -0.073742585078545 -0.997276881440121 6E-05
vn -0.0737285853523946 -0.997277885266657 6E-05
vn -0.997277885266657 0.0737285853523946 0.000818
vn -0.997277885266657 0.0737285853523946 0.000818
vn -0.99727788499333 0.0737295853523573 0.000818
vn -0.99727788499333 0.0737295853523573 0.000818
vn -0.997277885266657 0.0737285853523946 0.000818
vn -0.99727788499333 0.0737295853523573 0.000819
vn -0.997277885266657 0.0737285853523946 0.000819
vn -0.997277885266657 0.0737285853523946 0.000818
vn -0.997277885266657 0.0737285853523946 0.000818
vn -0.997277885266657 0.0737285853523946 0.000818
vn -0.997277885266657 0.0737285853523946 0.000818
vn -0.997277885266657 0.0737285853523946 0.000818
vn 0.0737295853523573 0.99727788499333 -6E-05
vn 0.0737285853523946 0.997277885266657 -6E-05
vn 0.0737275856257586 0.997278885539946 -6E-05
vn 0.0737275856257586 0.997278885539946 -6E-05
vn 0.0737285853523946 0.997277885266657 -6E-05
vn 0.0737275856257586 0.997278885539946 -6E-05
vn 0.0737295853523573 0.99727788499333 -6E-05
vn 0.0737295853523573 0.99727788499333 -6E-05
vn 0.0737295853523573 0.99727788499333 -6E-05
vn 0.0737295853523573 0.99727788499333 -6E-05
vn 0.0737295853523573 0.99727788499333 -6E-05
vn 0.0737285853523946 0.997277885266657 -6E-05
vn 0.997277885266657 -0.0737285853523946 -0.000818
vn 0.997277885539983 -0.073727585352432 -0.000821
vn 0.997277885539983 -0.073727585352432 -0.000821
vn 0.997277885539983 -0.073727585352432 -0.000821
vn 0.997277885539983 -0.073727585352432 -0.000821
vn 0.997277885539983 -0.073727585352432 -0.000821
vn 0.997277884720003 -0.0737305853523199 -0.000812
vn 0.997277885266657 -0.0737285853523946 -0.000817
vn 0.997277885266657 -0.0737285853523946 -0.000818
vn 0.997277885266657 -0.0737285853523946 -0.000818
vn 0.997277885266657 -0.0737285853523946 -0.000817
vn 0.997277885539983 -0.073727585352432 -0.000821
vn -0.0737355853521332 -0.99727788335337 6E-05
vn -0.0737285853523946 -0.997277885266657 6E-05
vn -0.0737215856259827 -0.997278887179906 6E-05
vn -0.0737215856259827 -0.997278887179906 6E-05
vn -0.0737285853523946 -0.997277885266657 6E-05
vn -0.0737215856259827 -0.997278887179906 6E-05
# 264 vertex normals
s off
g DEU_603_KARLSRUHE_PYRAMID_L:DEU_603_KARLSRUHE_PYRAMID
usemtl DEU_603_KARLSRUHE_PYRAMID_L:std_mtl
f 1/1/1 2/2/2 3/3/3
f 4/4/4 5/5/5 1/6/6
f 1/6/7 5/5/8 2/7/9
f 6/8/10 7/9/11 1/10/12
f 1/10/13 7/9/14 4/11/15
f 9/12/16 7/9/17 8/13/18
f 8/13/19 7/9/20 6/8/21
f 10/14/22 11/15/23 8/16/24
f 8/16/25 11/15/26 9/17/27
f 13/18/28 11/15/29 12/19/30
f 12/19/31 11/15/32 10/14/33
f 14/20/34 15/21/35 12/22/36
f 12/22/37 15/21/38 13/23/39
f 17/24/40 15/25/41 16/26/42
f 16/26/43 15/25/44 14/27/45
f 2/28/46 5/29/47 16/30/48
f 16/30/49 5/29/50 17/31/51
f 18/32/52 17/33/53 19/34/54
f 19/34/55 17/33/56 5/35/57
f 15/36/58 17/37/59 20/38/60
f 20/38/61 17/37/62 18/39/63
f 21/40/64 13/41/65 20/42/66
f 20/42/67 13/41/68 15/43/69
f 11/15/70 13/18/71 22/44/72
f 22/44/73 13/18/74 21/45/75
f 23/46/76 9/17/77 22/47/78
f 22/47/79 9/17/80 11/15/81
f 7/9/82 9/12/83 24/48/84
f 24/48/85 9/12/86 23/49/87
f 25/50/88 4/11/89 24/48/90
f 24/48/91 4/11/92 7/9/93
f 5/51/94 4/52/95 19/53/96
f 19/53/97 4/52/98 25/54/99
f 26/55/100 27/56/101 25/57/102
f 25/57/103 27/56/104 19/58/105
f 18/59/106 19/58/107 28/60/108
f 28/60/109 19/58/110 27/56/111
f 28/61/112 29/62/113 18/63/114
f 18/63/115 29/62/116 20/64/117
f 21/65/118 20/64/119 30/66/120
f 30/66/121 20/64/122 29/62/123
f 30/67/124 31/68/125 21/69/126
f 21/69/127 31/68/128 22/70/129
f 23/71/130 22/70/131 32/72/132
f 32/72/133 22/70/134 31/73/135
f 32/74/136 33/75/137 23/71/138
f 23/71/139 33/75/140 24/76/141
f 25/77/142 24/76/143 26/78/144
f 26/78/145 24/76/146 33/79/147
f 16/80/148 3/3/149 2/2/150
f 16/81/151 14/82/152 3/83/153
f 12/84/154 3/83/155 14/82/156
f 12/85/157 10/86/158 3/87/159
f 8/88/160 3/89/161 10/90/162
f 8/91/163 6/92/164 3/83/165
f 1/93/166 3/83/167 6/92/168
f 4/94/169 5/95/170 34/96/171
f 34/96/172 5/95/173 35/97/174
f 7/98/175 4/99/176 36/100/177
f 36/100/178 4/99/179 34/101/180
f 9/102/181 7/98/182 37/103/183
f 37/103/184 7/98/185 36/100/186
f 11/104/187 9/105/188 38/106/189
f 38/106/190 9/105/191 37/107/192
f 13/108/193 11/104/194 39/109/195
f 39/109/196 11/104/197 38/106/198
f 15/110/199 13/111/200 40/112/201
f 40/112/202 13/111/203 39/113/204
f 17/114/205 15/110/206 41/115/207
f 41/115/208 15/110/209 40/112/210
f 5/95/211 17/116/212 35/97/213
f 35/97/214 17/116/215 41/117/216
f 4/94/217 34/96/218 5/95/219
f 5/95/220 34/96/221 35/97/222
f 7/98/223 36/100/224 4/99/225
f 4/99/226 36/100/227 34/101/228
f 9/102/229 37/103/230 7/98/231
f 7/98/232 37/103/233 36/100/234
f 11/104/235 38/106/236 9/105/237
f 9/105/238 38/106/239 37/107/240
f 13/108/241 39/109/242 11/104/243
f 11/104/244 39/109/245 38/106/246
f 15/110/247 40/112/248 13/111/249
f 13/111/250 40/112/251 39/113/252
f 17/114/253 41/115/254 15/110/255
f 15/110/256 41/115/257 40/112/258
f 5/95/259 35/97/260 17/116/261
f 17/116/262 35/97/263 41/117/264
